<svg width="59" height="52" viewBox="0 0 59 52" fill="none" xmlns="http://www.w3.org/2000/svg">
                  <path opacity="0.2"
                    d="M15.1047 0L21.3189 4.49338C20.2567 5.88419 18.9819 8.0239 17.4948 10.9125C16.0076 13.6941 14.7329 16.7967 13.6706 20.2202C12.6083 23.5368 12.1303 26.7463 12.2365 29.8489C12.9801 29.6349 13.5644 29.5279 13.9893 29.5279C14.5204 29.4209 15.0515 29.3675 15.5827 29.3675C18.4508 29.3675 21.0003 30.2233 23.231 31.9351C25.4618 33.5399 26.5772 36.2145 26.5772 39.959C26.5772 43.1685 25.5149 46.0036 23.3904 48.4643C21.3721 50.818 18.6101 51.9948 15.1047 51.9948C10.2182 52.1018 6.55337 50.5505 4.11015 47.341C1.66692 44.0244 0.445312 39.959 0.445312 35.1447C0.445312 31.7211 0.976448 28.0836 2.03872 24.2322C3.10099 20.3807 4.6944 16.4222 6.81894 12.3568C9.04971 8.18437 11.8116 4.06544 15.1047 0ZM46.9728 0L53.1871 4.49338C52.1248 5.88419 50.8501 8.0239 49.3629 10.9125C47.8757 13.6941 46.601 16.7967 45.5387 20.2202C44.4764 23.5368 43.9984 26.7463 44.1047 29.8489C44.8482 29.6349 45.4325 29.5279 45.8574 29.5279C46.3885 29.4209 46.9197 29.3675 47.4508 29.3675C50.3189 29.3675 52.8684 30.2233 55.0992 31.9351C57.3299 33.5399 58.4453 36.2145 58.4453 39.959C58.4453 43.1685 57.383 46.0036 55.2585 48.4643C53.2402 50.818 50.4783 51.9948 46.9728 51.9948C42.0863 52.1018 38.4215 50.5505 35.9783 47.341C33.5351 44.0244 32.3134 39.959 32.3134 35.1447C32.3134 31.7211 32.8446 28.0836 33.9069 24.2322C34.9691 20.3807 36.5625 16.4222 38.6871 12.3568C40.9178 8.18437 43.6797 4.06544 46.9728 0Z"
                    fill="#A5A5A5" />
                </svg>